<?xml version="1.0" encoding="UTF-8"?>
<svg id="Layer_1" data-name="Layer 1" xmlns="http://www.w3.org/2000/svg" viewBox="0 0 119.22 32">
  <g id="App_design" data-name="App design">
    <g id="Group_6" data-name="Group 6">
      <g id="Group_5" data-name="Group 5">
        <g id="Group_4" data-name="Group 4">
          <g id="Group_3" data-name="Group 3">
            <path id="Path_4" data-name="Path 4" d="m21.2,3.2v25.6c0,1.77-1.43,3.2-3.2,3.2H3.2c-1.77,0-3.2-1.43-3.2-3.2V3.2C0,1.43,1.43,0,3.2,0h14.8c1.77,0,3.2,1.43,3.2,3.2Zm-2.4,25.6v-3.2H2.4v3.2c0,.44.36.79.8.8h14.8c.44,0,.79-.36.8-.8Zm0-5.6V3.2c0-.44-.36-.79-.8-.8H3.2c-.44,0-.79.36-.8.8v20h16.4Z" style="fill: #104386;"/>
            <path id="Path_5" data-name="Path 5" d="m18.8,3.2v20H2.4V3.2c0-.44.36-.79.8-.8h14.8c.44,0,.79.36.8.8Zm-1.8,16.2V5.6c0-.66-.54-1.2-1.2-1.2H5.4c-.66,0-1.2.54-1.2,1.2v13.8c0,.66.54,1.2,1.2,1.2h10.39c.66,0,1.2-.54,1.2-1.2Z" style="fill: #f60;"/>
            <path id="Path_6" data-name="Path 6" d="m17,5.6v13.8c0,.66-.54,1.2-1.2,1.2H5.4c-.66,0-1.2-.54-1.2-1.2V5.6c0-.66.54-1.2,1.2-1.2h10.39c.66,0,1.2.54,1.2,1.2Zm-2.4,12.6v-2.84h-3.2v2.84h3.2Zm0-5.24v-6.16h-3.2v6.16h3.2Zm-5.6,5.24V6.8h-2.4v11.4h2.4Z" style="fill: #104386;"/>
            <rect id="Rectangle_3" data-name="Rectangle 3" x="11.4" y="15.36" width="3.2" height="2.84" style="fill: #fff;"/>
            <rect id="Rectangle_4" data-name="Rectangle 4" x="11.4" y="6.8" width="3.2" height="6.16" style="fill: #69f;"/>
            <path id="Path_7" data-name="Path 7" d="m10.6,26.53c.63,0,1.14.51,1.14,1.14,0,.63-.51,1.14-1.14,1.14-.63,0-1.14-.51-1.14-1.14h0c0-.63.51-1.14,1.13-1.14h0Z" style="fill: #104386;"/>
            <path id="Path_8" data-name="Path 8" d="m18,29.6h-7.4v-.8c.63,0,1.14-.51,1.13-1.14,0-.63-.51-1.13-1.13-1.13v-.93h8.2v3.2c0,.44-.36.79-.8.8Z" style="fill: #69f;"/>
            <path id="Path_9" data-name="Path 9" d="m10.6,29.6H3.2c-.44,0-.79-.36-.8-.8v-3.2h8.2v.93c-.63,0-1.14.51-1.13,1.14,0,.63.51,1.13,1.13,1.13v.8Z" style="fill: #69f;"/>
            <rect id="Rectangle_5" data-name="Rectangle 5" x="6.6" y="6.8" width="2.4" height="11.4" style="fill: #fff;"/>
          </g>
        </g>
      </g>
    </g>
  </g>
  <text transform="translate(23.2 21.27)" style="font-family: Montserrat-SemiBold, Montserrat; font-size: 18px; font-weight: 600;"><tspan x="0" y="0" style="letter-spacing: -.02em;">C</tspan><tspan x="12.73" y="0" style="letter-spacing: 0em;">ode </tspan><tspan x="52.87" y="0" style="letter-spacing: -.05em;">W</tspan><tspan x="72.47" y="0" style="letter-spacing: 0em;">eb</tspan></text>
</svg>