<?xml version="1.0" encoding="UTF-8"?>
<svg id="Layer_1" data-name="Layer 1" xmlns="http://www.w3.org/2000/svg" viewBox="0 0 269 67">
  <path d="m269,25v42H0C0,65.04,0,63.08,0,61.12c.06,0,.1-.03.08-.09,0-.02-.05-.02-.08-.03C0,40.67,0,20.33,0,0h269v20c-.83,0-1.66.02-2.5.02-6.64,0-13.28,0-19.93,0-.26,0-.54-.09-.79.12-.01.08-.04.16-.04.24,0,1.31-.01,2.62-.02,3.93,0,.23.03.45.19.64.24.08.49.06.74.06,2.25,0,4.5,0,6.75,0,.27,0,.54-.04.79.13.21.25.15.55.15.84,0,3.91.01,7.83,0,11.74-.01,3.37.07,6.75-.06,10.12-.01.37,0,.74.14,1.11.12.02.22.06.32.06,1.73,0,3.46,0,5.18,0,.18,0,.38,0,.53-.17.1-.27.07-.56.07-.85,0-4.14,0-8.29-.02-12.43-.01-3.04.07-6.08-.08-9.12-.02-.43-.08-.87.11-1.29.18-.15.39-.14.6-.14.5,0,1,0,1.5,0,2.12,0,4.25-.01,6.37-.02ZM44.1,5.87c-.3-.5-.68-.82-1.1-1.1-.45-.3-.89-.6-1.36-.86-1.1-.6-2.23-1.12-3.41-1.55-.79-.29-1.61-.44-2.4-.7-.98-.32-2-.51-3.01-.63-.82-.1-1.66-.09-2.49-.14-2.31-.13-4.62-.02-6.93,0-1.23.01-2.45.12-3.67.33-.66.11-1.3.34-1.96.38-.86.06-1.68.25-2.47.53-2.14.74-4.14,1.76-5.99,3.07-1.52,1.08-2.89,2.32-4.12,3.72-.37.42-.76.84-1.05,1.31-.69,1.13-1.37,2.26-1.86,3.5-.61,1.55-1.03,3.14-1.15,4.79-.14,1.78-.17,3.56.22,5.33.28,1.26.54,2.5,1.12,3.67.81,1.65,1.79,3.18,3.06,4.53,1.67,1.76,3.61,3.18,5.69,4.41.6.36,1.22.7,1.85,1.01,1.14.57,2.33,1.02,3.49,1.55,1.37.62,2.76,1.19,4.16,1.74,1.3.51,2.64.95,3.87,1.62,1.81.99,3.47,2.18,4.98,3.6,1.17,1.11,2.13,2.39,3.1,3.66.25.33.37.71.46,1.11-.43.06-.82.08-1.2.16-1.37.3-2.76.5-4.16.63-3.41.33-6.82.24-10.21-.19-.75-.1-1.51-.22-2.26-.34-.83-.14-1.61-.45-2.45-.56-.35-.05-.73-.15-1.06-.28-.63-.23-1.27-.35-1.91-.41-1-.1-1.97.05-2.93.36-.81.26-1.55.62-2.24,1.11-1.32.95-2.23,2.19-2.86,3.68-.29.69-.38,1.42-.6,2.12-.18.55-.32,1.11-.47,1.67-.13.47-.17.96-.35,1.43-.25.65-.06,1.16.55,1.54.39.24.8.45,1.2.66,1.16.61,2.34,1.19,3.58,1.61,1.13.39,2.27.75,3.43,1.06,1.46.39,2.94.71,4.44.88,1.8.2,3.61.22,5.42.34,2.08.13,4.16.03,6.23-.19,2.13-.22,4.21-.63,6.27-1.2.51-.14,1-.38,1.5-.55,1.83-.63,3.53-1.53,5.16-2.55,1.98-1.23,3.62-2.87,5.14-4.61.51-.58.98-1.2,1.32-1.89.37-.75.67-1.53.96-2.31.32-.86.58-1.72.76-2.63.18-.93.38-1.84.51-2.78.29-2.11-.01-4.17-.38-6.23-.14-.79-.4-1.56-.67-2.33-.67-1.96-1.77-3.66-3.11-5.22-1.42-1.65-3.14-2.95-4.97-4.12-2.37-1.52-4.97-2.6-7.59-3.57-1.4-.52-2.79-1.09-4.16-1.67-1.47-.62-2.91-1.32-4.29-2.12-.98-.56-2.01-1.03-2.89-1.76-.4-.33-.7-.77-1.12-1.05-.61-.42-1.06-.99-1.58-1.49-.24-.23-.38-.54-.29-.81,4.26-1.91,8.63-2.62,13.29-1.87.11-.08.35-.01.57.02.75.11,1.5.2,2.25.29,1.6.2,3.18.2,4.74-.22.29-.08.62-.14.86-.29,1.09-.69,2.08-1.51,2.87-2.54,1.2-1.58,2.28-3.24,3.15-5.03.24-.5.52-1.02.49-1.62Zm186.64,43.02c.04-1.13.11-2.23.11-3.33,0-7.89,0-15.79,0-23.68,0-.58-.07-1.15-.11-1.68-.22-.19-.43-.17-.64-.17-2.25,0-4.5,0-6.75,0-.8,0-1.24.37-1.35,1.15-.23,1.68-.73,3.29-1.05,4.95-.18.92-.4,1.84-.67,2.75-.34,1.13-.53,2.32-.76,3.48-.09.47-.34.88-.38,1.34-.09.93-.42,1.81-.57,2.73-.17,1.03-.41,2.05-.69,3.06-.2.71-.36,1.42-.54,2.13-.09.35-.31.5-.64.51-.19-.18-.17-.37-.18-.55-.03-.56-.13-1.12-.28-1.66-.52-1.93-.9-3.88-1.38-5.82-.29-1.18-.58-2.36-.86-3.55-.17-.71-.36-1.42-.5-2.13-.18-.94-.34-1.88-.58-2.81-.17-.65-.37-1.3-.45-1.97-.09-.72-.24-1.43-.39-2.14-.06-.28-.16-.55-.29-.81-.26-.54-.74-.68-1.3-.68-2.35,0-4.71,0-7.06,0-.1,0-.21-.01-.3.08v28.88c1.75.14,4.8.07,5.31-.11.07-.32.16-.63.16-.97-.01-2.58,0-5.17,0-7.75,0-1.27-.1-2.54-.04-3.81.09-2.21-.05-4.41-.12-6.62-.04-1.16-.09-2.33.02-3.49.02-.24.04-.45.34-.48.13.08.19.19.19.32,0,.34.11.65.2.98.3,1.13.49,2.29.79,3.43.34,1.29.6,2.6.87,3.9.23,1.1.43,2.22.7,3.3.48,1.94.86,3.91,1.34,5.86.2.82.37,1.65.5,2.48.07.48.21.95.29,1.44.08.51.06,1.12.56,1.51.06.01.12.04.18.04,1.56,0,3.12,0,4.69,0,.25,0,.48-.08.66-.24.17-.43.28-.87.37-1.32.1-.53.17-1.07.32-1.58.37-1.24.56-2.52.89-3.77.11-.41.2-.84.27-1.26.23-1.43.62-2.84.94-4.25.17-.74.29-1.5.54-2.23.14-.41.14-.87.27-1.3.31-1,.55-2.02.82-3.03.21-.76.28-1.54.4-2.31.13-.86.54-1.62.65-2.47,0-.02.06-.03.1-.04.18.19.19.42.15.64-.21.99-.14,1.99-.22,2.99-.03.43-.15.85-.16,1.27-.04,1.24.04,2.49.04,3.73,0,4.83-.02,9.67-.02,14.5,0,.22-.08.46.08.65,1.97.11,4.97.06,5.56-.11Zm-105.39-10.71c.24-.21.5-.16.75-.16,1.5,0,3,0,4.5,0,.56,0,1.12-.02,1.67.09.77.15,1.55.26,2.22.73.32.22.59.48.72.84.27.71.48,1.44.55,2.21.17,1.82.2,3.66.5,5.47.09.55.06,1.16.66,1.66,2.16,0,4.41.06,6.76-.05-.22-.31-.34-.57-.54-.74-.83-.71-1.05-1.67-1.03-2.68.02-1.63-.07-3.25-.26-4.86-.19-1.67-.64-3.24-2.15-4.26-.21-.14-.4-.29-.6-.45-.24-.18-.4-.41-.44-.7.22-.24.49-.38.75-.49.69-.29,1.21-.78,1.67-1.35.65-.79,1.06-1.68,1.33-2.66.09-.33.09-.67.17-.97.14-.49.15-.98.16-1.47.01-.5-.16-.98-.2-1.46-.06-.83-.33-1.57-.7-2.26-1.01-1.91-2.5-3.28-4.61-3.93-.28-.08-.56-.07-.83-.18-.97-.4-2-.47-3.03-.48-4.58-.02-9.17,0-13.75,0-.16,0-.33-.05-.47.07v28.89h5.99c.26-.24.25-.51.25-.78-.07-2.98-.01-5.96-.03-8.94,0-.37,0-.74,0-1.09Zm28.92,5.84c-.05-.24-.12-.38-.11-.52.15-2.43.08-4.87.07-7.28.28-.24.6-.2.91-.2,4.08,0,8.17,0,12.25,0,.22,0,.45.05.76-.09-.05-1.6.12-3.23-.06-4.91-2.34,0-4.63,0-6.91,0-2.3,0-4.61.03-7-.03.05-2,.12-3.92.05-5.81.35-.21.67-.16.98-.16,4.44,0,8.87,0,13.31,0,.31,0,.63.06.98-.23-.02-1.49.14-3.04-.1-4.54-.27-.21-.51-.23-.76-.23-6.52,0-13.04,0-19.56,0-.25,0-.5-.02-.72.2,0,.67,0,1.36,0,2.04,0,5.71,0,11.41-.01,17.12,0,2.81.07,5.62-.06,8.43-.02.37.02.75.14,1.15h21.65v-4.95h-15.8Zm-64.84-16.26c.06-.21.02-.4-.02-.58-.16-.87-.46-1.69-.8-2.5-.74-1.76-2.01-3.04-3.68-3.93-1.31-.69-2.7-1.17-4.14-1.47-1.7-.35-3.43-.37-5.14,0-.68.15-1.35.37-2.03.52-.4.09-.78.25-1.15.41-.71.31-1.34.75-1.95,1.22-1.82,1.39-2.8,3.3-3.12,5.51-.2,1.39-.07,2.8.45,4.15.39,1,1.04,1.8,1.81,2.53.69.65,1.54,1.05,2.35,1.52.78.45,1.64.64,2.47.89.54.17,1.11.31,1.68.41,1.34.23,2.62.75,3.93,1.13.91.26,1.81.6,2.69.96,1.52.63,2.03,2.24,1.18,3.52-.76,1.14-1.95,1.68-3.23,1.9-1.14.19-2.33.07-3.49.04-.51-.01-.99-.16-1.48-.3-.65-.18-1.22-.53-1.84-.76-.23-.48-.8-.71-1-1.23-.19-.49-.35-.99-.5-1.44-.22-.2-.44-.24-.68-.25-1.6-.09-4.42-.02-4.85.13-.13.95.16,1.85.45,2.72.36,1.11,1.01,2.07,1.86,2.89,1.04,1.01,2.27,1.71,3.6,2.23,1.29.51,2.63.79,4.02.94,1.42.15,2.83.07,4.24.06.04,0,.09,0,.12-.01,1.05-.45,2.22-.5,3.27-.97,1.17-.51,2.25-1.17,3.22-1.99.63-.54,1.06-1.24,1.51-1.93.57-.87.83-1.84,1.08-2.8.22-.85.16-1.72,0-2.59-.25-1.41-.9-2.6-1.81-3.67-.78-.92-1.89-1.36-2.92-1.87-1.38-.68-2.89-1.02-4.38-1.4-1.37-.35-2.76-.67-4.12-1.06-.71-.2-1.39-.53-2.08-.8-.68-.26-1.34-.55-1.79-1.22-.04-.17-.11-.39-.15-.61-.06-.37-.14-.73-.07-1.11.2-1.11.93-1.77,1.86-2.26.67-.36,1.44-.44,2.18-.57.8-.14,1.58-.15,2.39.09.59.17,1.13.46,1.7.64.44.13.78.36,1.12.64.76.62,1.05,1.49,1.22,2.36.19.17.38.16.57.16,1.6,0,3.21,0,4.81,0,.23,0,.45-.03.64-.25Zm92.71-6.8c-.02.36-.16.71-.29,1.06-.24.67-.49,1.33-.73,2-.38,1.02-.69,2.07-1.06,3.1-.35.95-.7,1.9-1.05,2.84-.51,1.38-1.01,2.77-1.51,4.16-.46,1.28-.92,2.56-1.38,3.84-.46,1.3-.91,2.61-1.37,3.91-.13.37-.27.73-.41,1.1-.33.89-.66,1.77-.97,2.67-.28.83-.53,1.67-.9,2.46-.13.26-.24.55-.19.89h6.01c.68-1.97,1.29-3.96,1.85-5.94h10.92c.17.41.26.81.38,1.2.41,1.34.87,2.66,1.31,3.99.1.29.15.6.51.78.61,0,1.25,0,1.9,0,.65,0,1.29.01,1.94,0,.63-.02,1.27.07,1.98-.06-3.44-9.62-6.82-19.21-10.15-28.84-.14-.02-.3-.08-.47-.08-1.67,0-3.33,0-5,0-.45,0-.8.19-1.05.57-.07.1-.14.2-.26.37Zm-81.94,4.19c.2.26.15.56.15.84,0,3.21.01,6.42,0,9.62-.02,4.08.08,8.17-.06,12.25-.01.37.01.74.13,1.08.11.03.17.06.23.06,1.77,0,3.54,0,5.31,0,.19,0,.38-.01.51-.21.09-.26.06-.55.06-.84,0-2.44,0-4.87-.02-7.31-.04-4.89.11-9.79-.1-14.68-.01-.29.02-.58.15-.85.26-.13.53-.09.8-.09,2.35,0,4.71,0,7.06,0,.22,0,.45.07.65-.07v-4.88h-23.37c-.13,1.62.01,3.19.03,4.7.29.3.59.25.88.25,2.27,0,4.54,0,6.81,0,.27,0,.55-.03.78.14Zm136.44-5.01v28.76c.1.04.15.08.21.08,1.75.05,3.5.04,5.25,0,.2,0,.36-.08.45-.25.08-.26.05-.51.05-.76,0-4.42,0-8.83,0-13.25,0-4.31,0-8.62,0-12.94,0-.58-.05-1.15-.35-1.65-.59-.19-5.04-.2-5.61-.01Z" style="fill: #fefefe;"/>
  <path d="m269,25c-2.12,0-4.25.01-6.37.02-.5,0-1,0-1.5,0-.21,0-.42-.02-.6.14-.19.41-.13.85-.11,1.29.14,3.04.07,6.08.08,9.12.02,4.14.02,8.29.02,12.43,0,.29.02.58-.07.85-.15.17-.35.17-.53.17-1.73,0-3.46,0-5.18,0-.1,0-.2-.03-.32-.06-.13-.37-.15-.74-.14-1.11.13-3.37.05-6.74.06-10.12.01-3.91,0-7.83,0-11.74,0-.29.05-.59-.15-.84-.24-.17-.52-.13-.79-.13-2.25,0-4.5,0-6.75,0-.25,0-.5.03-.74-.06-.16-.19-.19-.41-.19-.64,0-1.31,0-2.62.02-3.93,0-.08.03-.16.04-.24.24-.21.53-.12.79-.12,6.64,0,13.28,0,19.93,0,.83,0,1.66-.01,2.5-.02v5Z" style="fill: #e40712;"/>
  <path d="m0,61s.08.02.08.03c.02.06-.02.09-.08.09,0-.04,0-.08,0-.12Z" style="fill: #c3bebd;"/>
  <path d="m44.1,5.87c.03.6-.25,1.12-.49,1.62-.87,1.79-1.94,3.45-3.15,5.03-.79,1.04-1.79,1.85-2.87,2.54-.24.15-.57.22-.86.29-1.56.42-3.15.41-4.74.22-.75-.09-1.5-.19-2.25-.29-.22-.03-.45-.1-.57-.02-4.66-.75-9.02-.04-13.29,1.87-.09.27.05.57.29.81.52.5.97,1.07,1.58,1.49.42.29.72.72,1.12,1.05.88.73,1.92,1.2,2.89,1.76,1.38.8,2.82,1.5,4.29,2.12,1.38.58,2.76,1.15,4.16,1.67,2.63.98,5.22,2.05,7.59,3.57,1.82,1.17,3.54,2.47,4.97,4.12,1.34,1.56,2.44,3.26,3.11,5.22.26.77.52,1.54.67,2.33.37,2.06.67,4.12.38,6.23-.13.94-.33,1.85-.51,2.78-.18.91-.44,1.77-.76,2.63-.29.78-.6,1.56-.96,2.31-.34.69-.81,1.31-1.32,1.89-1.53,1.74-3.16,3.38-5.14,4.61-1.64,1.02-3.33,1.92-5.16,2.55-.5.17-.99.41-1.5.55-2.06.57-4.14.98-6.27,1.2-2.08.22-4.16.32-6.23.19-1.81-.12-3.62-.14-5.42-.34-1.5-.17-2.98-.49-4.44-.88-1.16-.31-2.3-.67-3.43-1.06-1.24-.42-2.42-1-3.58-1.61-.41-.21-.81-.42-1.2-.66-.61-.38-.8-.88-.55-1.54.18-.47.23-.96.35-1.43.15-.56.29-1.12.47-1.67.22-.7.31-1.43.6-2.12.63-1.49,1.54-2.74,2.86-3.68.69-.49,1.43-.85,2.24-1.11.96-.31,1.94-.46,2.93-.36.65.07,1.29.18,1.91.41.33.12.71.23,1.06.28.84.11,1.62.43,2.45.56.75.12,1.5.25,2.26.34,3.4.43,6.8.51,10.21.19,1.4-.13,2.79-.33,4.16-.63.38-.08.77-.11,1.2-.16-.09-.41-.21-.78-.46-1.11-.97-1.27-1.93-2.56-3.1-3.66-1.5-1.42-3.17-2.61-4.98-3.6-1.23-.67-2.57-1.11-3.87-1.62-1.4-.55-2.79-1.12-4.16-1.74-1.16-.53-2.35-.98-3.49-1.55-.62-.31-1.24-.65-1.85-1.01-2.08-1.23-4.02-2.64-5.69-4.41-1.27-1.34-2.25-2.87-3.06-4.53-.57-1.17-.84-2.41-1.12-3.67-.39-1.77-.36-3.55-.22-5.33.13-1.65.55-3.24,1.15-4.79.49-1.24,1.17-2.38,1.86-3.5.29-.47.68-.89,1.05-1.31,1.23-1.39,2.6-2.64,4.12-3.72,1.85-1.31,3.85-2.33,5.99-3.07.8-.28,1.62-.47,2.47-.53.66-.04,1.31-.27,1.96-.38,1.21-.2,2.43-.31,3.67-.33,2.31-.02,4.62-.14,6.93,0,.83.05,1.67.04,2.49.14,1.02.12,2.03.31,3.01.63.79.26,1.61.41,2.4.7,1.18.43,2.31.95,3.41,1.55.47.26.91.56,1.36.86.42.28.8.6,1.1,1.1Z" style="fill: #e40712;"/>
  <path d="m230.74,48.89c-.58.17-3.58.22-5.56.11-.15-.2-.08-.44-.08-.65,0-4.83.02-9.67.02-14.5,0-1.24-.07-2.49-.04-3.73.01-.42.13-.84.16-1.27.07-.99,0-2,.22-2.99.05-.23.04-.46-.15-.64-.04.01-.1.03-.1.04-.12.85-.52,1.61-.65,2.47-.12.77-.19,1.55-.4,2.31-.28,1.01-.51,2.03-.82,3.03-.13.43-.13.88-.27,1.3-.25.73-.38,1.48-.54,2.23-.32,1.42-.7,2.82-.94,4.25-.07.42-.16.85-.27,1.26-.33,1.25-.53,2.53-.89,3.77-.15.51-.22,1.05-.32,1.58-.09.45-.19.89-.37,1.32-.19.16-.41.24-.66.24-1.56,0-3.12,0-4.69,0-.06,0-.12-.02-.18-.04-.51-.38-.49-1-.56-1.51-.07-.49-.21-.96-.29-1.44-.12-.84-.3-1.66-.5-2.48-.48-1.94-.86-3.91-1.34-5.86-.27-1.09-.46-2.2-.7-3.3-.28-1.3-.54-2.61-.87-3.9-.3-1.14-.49-2.3-.79-3.43-.09-.32-.2-.64-.2-.98,0-.13-.06-.24-.19-.32-.29.02-.31.24-.34.48-.12,1.16-.06,2.33-.02,3.49.07,2.21.21,4.41.12,6.62-.05,1.27.04,2.54.04,3.81,0,2.58,0,5.17,0,7.75,0,.34-.09.65-.16.97-.51.18-3.56.25-5.31.11v-28.88c.09-.1.2-.08.3-.08,2.35,0,4.71,0,7.06,0,.56,0,1.04.14,1.3.68.12.25.23.53.29.81.15.71.3,1.42.39,2.14.08.68.28,1.32.45,1.97.24.93.4,1.87.58,2.81.14.72.33,1.42.5,2.13.29,1.18.57,2.37.86,3.55.48,1.94.86,3.89,1.38,5.82.15.54.25,1.09.28,1.66,0,.18-.02.38.18.55.33,0,.55-.16.64-.51.18-.71.34-1.43.54-2.13.28-1.01.53-2.03.69-3.06.15-.92.48-1.8.57-2.73.05-.46.29-.87.38-1.34.23-1.17.42-2.35.76-3.48.27-.91.49-1.83.67-2.75.32-1.66.82-3.28,1.05-4.95.11-.79.55-1.15,1.35-1.15,2.25,0,4.5,0,6.75,0,.2,0,.42-.03.64.17.04.53.11,1.11.11,1.68,0,7.89,0,15.79,0,23.68,0,1.1-.07,2.2-.11,3.33Z" style="fill: #e40712;"/>
  <path d="m125.35,38.18c0,.35,0,.72,0,1.09.02,2.98-.04,5.96.03,8.94,0,.27.02.55-.25.78h-5.99v-28.89c.14-.12.31-.07.47-.07,4.58,0,9.17-.01,13.75,0,1.03,0,2.06.08,3.03.48.27.11.56.1.83.18,2.11.64,3.6,2.02,4.61,3.93.37.69.64,1.43.7,2.26.03.47.21.96.2,1.46-.01.49-.02.98-.16,1.47-.08.3-.08.64-.17.97-.27.98-.68,1.88-1.33,2.66-.46.57-.98,1.06-1.67,1.35-.26.11-.53.25-.75.49.04.3.21.52.44.7.2.15.4.31.6.45,1.51,1.02,1.95,2.59,2.15,4.26.19,1.61.28,3.23.26,4.86-.01,1.01.2,1.96,1.03,2.68.19.17.31.42.54.74-2.35.11-4.6.05-6.76.05-.6-.5-.57-1.11-.66-1.66-.31-1.81-.33-3.64-.5-5.47-.07-.76-.28-1.5-.55-2.21-.14-.36-.41-.62-.72-.84-.67-.47-1.44-.58-2.22-.73-.56-.11-1.11-.09-1.67-.09-1.5,0-3,0-4.5,0-.24,0-.5-.05-.75.16Zm-.02-13c0,.09,0,.17,0,.26.02,2.23.08,4.45-.04,6.68-.01.29.01.58.16.85.06,0,.12.02.18.02,2.23.01,4.45,0,6.68.04.92.02,1.73-.24,2.56-.58.96-.4,1.44-1.14,1.63-2.09.2-.98.15-1.94-.2-2.92-.29-.8-.74-1.36-1.46-1.75-.82-.44-1.69-.66-2.61-.66-2.04-.02-4.08,0-6.12,0-.25,0-.5-.05-.78.16Z" style="fill: #e40712;"/>
  <path d="m154.28,44.02h15.8v4.95h-21.65c-.12-.4-.16-.78-.14-1.15.12-2.81.05-5.62.06-8.43.01-5.71,0-11.41.01-17.12,0-.69,0-1.37,0-2.04.22-.22.47-.2.72-.2,6.52,0,13.04,0,19.56,0,.25,0,.5.02.76.23.24,1.5.08,3.05.1,4.54-.35.29-.67.23-.98.23-4.44,0-8.87,0-13.31,0-.31,0-.63-.05-.98.16.06,1.89,0,3.81-.05,5.81,2.4.06,4.7.02,7,.03,2.29,0,4.57,0,6.91,0,.17,1.68,0,3.31.06,4.91-.3.14-.53.09-.76.09-4.08,0-8.17,0-12.25,0-.31,0-.62-.04-.91.2.02,2.42.08,4.85-.07,7.28,0,.14.06.28.11.52Z" style="fill: #e40712;"/>
  <path d="m89.43,27.77c-.18.23-.4.25-.64.25-1.6,0-3.21,0-4.81,0-.19,0-.38,0-.57-.16-.17-.88-.47-1.74-1.22-2.36-.34-.28-.68-.51-1.12-.64-.58-.17-1.11-.46-1.7-.64-.81-.23-1.59-.23-2.39-.09-.74.13-1.5.22-2.18.57-.93.49-1.67,1.15-1.86,2.26-.07.39,0,.75.07,1.11.04.22.11.44.15.61.46.67,1.11.96,1.79,1.22.7.26,1.37.59,2.08.8,1.36.39,2.75.7,4.12,1.06,1.49.38,3,.72,4.38,1.4,1.03.51,2.14.95,2.92,1.87.91,1.07,1.55,2.27,1.81,3.67.16.87.22,1.75,0,2.59-.25.97-.51,1.93-1.08,2.8-.45.69-.88,1.39-1.51,1.93-.97.83-2.05,1.48-3.22,1.99-1.05.46-2.22.52-3.27.97-.04.02-.08.01-.12.01-1.41,0-2.83.08-4.24-.06-1.38-.14-2.73-.43-4.02-.94-1.33-.52-2.57-1.22-3.6-2.23-.84-.82-1.5-1.78-1.86-2.89-.28-.87-.57-1.77-.45-2.72.43-.15,3.25-.23,4.85-.13.23.01.45.06.68.25.16.45.32.95.5,1.44.19.52.76.74,1,1.23.63.22,1.2.58,1.84.76.49.14.97.29,1.48.3,1.17.03,2.35.15,3.49-.04,1.28-.21,2.48-.76,3.23-1.9.85-1.28.35-2.89-1.18-3.52-.88-.36-1.78-.69-2.69-.96-1.31-.38-2.59-.89-3.93-1.13-.57-.1-1.14-.24-1.68-.41-.83-.26-1.69-.45-2.47-.89-.81-.47-1.66-.87-2.35-1.52-.76-.72-1.42-1.52-1.81-2.53-.52-1.35-.65-2.76-.45-4.15.32-2.21,1.29-4.12,3.12-5.51.61-.47,1.24-.91,1.95-1.22.38-.16.75-.32,1.15-.41.68-.15,1.35-.37,2.03-.52,1.71-.37,3.44-.35,5.14,0,1.44.3,2.84.78,4.14,1.47,1.68.89,2.94,2.17,3.68,3.93.34.8.64,1.63.8,2.5.03.19.07.37.02.58Z" style="fill: #e40712;"/>
  <path d="m182.14,20.97c.12-.17.19-.26.26-.37.25-.38.6-.57,1.05-.57,1.67,0,3.33,0,5,0,.16,0,.32.05.47.08,3.33,9.64,6.7,19.22,10.15,28.84-.7.13-1.34.05-1.98.06-.65.02-1.29,0-1.94,0-.64,0-1.29,0-1.9,0-.35-.18-.41-.49-.51-.78-.44-1.33-.9-2.65-1.31-3.99-.12-.39-.21-.79-.38-1.2h-10.92c-.56,1.98-1.17,3.97-1.85,5.94h-6.01c-.04-.34.07-.62.19-.89.38-.79.62-1.64.9-2.46.31-.9.64-1.78.97-2.67.14-.37.28-.73.41-1.1.46-1.3.91-2.61,1.37-3.91.45-1.28.92-2.56,1.38-3.84.5-1.39,1-2.78,1.51-4.16.35-.95.71-1.9,1.05-2.84.37-1.02.69-2.07,1.06-3.1.24-.67.5-1.33.73-2,.12-.35.27-.7.29-1.06Zm7.31,16.93c0-.08.01-.13,0-.17-.6-1.42-1.05-2.9-1.55-4.36-.45-1.31-.75-2.67-1.16-3.99-.26-.85-.61-1.68-.91-2.51-.2,0-.28.08-.33.21-.17.44-.38.86-.48,1.32-.21.95-.57,1.84-.86,2.76-.31.96-.57,1.93-.9,2.88-.26.76-.51,1.53-.81,2.28-.2.51-.48,1.05-.31,1.65.94.13,6.83.08,7.31-.07Z" style="fill: #e40712;"/>
  <path d="m100.2,25.16c-.24-.17-.51-.14-.78-.14-2.27,0-4.54,0-6.81,0-.29,0-.59.04-.88-.25-.02-1.51-.16-3.09-.03-4.7h23.37v4.88c-.19.14-.43.07-.65.07-2.35,0-4.71,0-7.06,0-.27,0-.54-.05-.8.09-.14.27-.17.56-.15.85.21,4.89.06,9.79.1,14.68.02,2.44.02,4.87.02,7.31,0,.29.03.58-.06.84-.13.2-.33.21-.51.21-1.77,0-3.54,0-5.31,0-.06,0-.12-.03-.23-.06-.12-.34-.14-.71-.13-1.08.14-4.08.04-8.16.06-12.25.02-3.21,0-6.42,0-9.62,0-.29.05-.59-.15-.84Z" style="fill: #e40712;"/>
  <path d="m236.64,20.14c.57-.18,5.03-.17,5.61.01.3.5.35,1.07.35,1.65,0,4.31,0,8.62,0,12.94,0,4.42,0,8.83,0,13.25,0,.25.02.5-.05.76-.1.16-.25.24-.45.25-1.75.03-3.5.04-5.25,0-.06,0-.11-.04-.21-.08v-28.76Z" style="fill: #e40712;"/>
  <path d="m125.33,25.18c.27-.21.53-.16.78-.16,2.04,0,4.08-.01,6.12,0,.92,0,1.8.22,2.61.66.72.39,1.17.95,1.46,1.75.35.98.4,1.94.2,2.92-.19.95-.67,1.69-1.63,2.09-.83.34-1.64.6-2.56.58-2.23-.04-4.45-.03-6.68-.04-.06,0-.12-.01-.18-.02-.15-.27-.18-.56-.16-.85.12-2.23.05-4.45.04-6.68,0-.08,0-.16,0-.26Z" style="fill: #fefefe;"/>
  <path d="m189.45,37.9c-.48.15-6.37.2-7.31.07-.17-.6.1-1.15.31-1.65.3-.75.55-1.52.81-2.28.33-.95.6-1.92.9-2.88.29-.92.65-1.82.86-2.76.1-.45.32-.88.48-1.32.05-.13.13-.21.33-.21.3.82.64,1.65.91,2.51.41,1.32.71,2.69,1.16,3.99.5,1.46.95,2.94,1.55,4.36.01.04,0,.08,0,.17Z" style="fill: #fefefe;"/>
</svg>