<svg xmlns="http://www.w3.org/2000/svg" xmlns:xlink="http://www.w3.org/1999/xlink" viewBox="0 0 40 60"><g style="clip-path:url(#a);"><path d="M.16,48.22,6.66,6.7A1.18,1.18,0,0,1,8,5.72a1.26,1.26,0,0,1,.87.62l6.71,12.53,2.66-5.1a1.2,1.2,0,0,1,1.62-.51,1.39,1.39,0,0,1,.51.51l18.1,34.45Z" style="fill:#ffa000"/><path d="M22.33,6-9.43,3.29V60.81L.16,48.22Z" style="opacity:0.119999997317791;isolation:isolate;fill:url(#b)"/><path d="M22.6,32.05l-7-13.21L.16,48.22Z" style="fill:#f57c00"/><path d="M-9.43,3.29H48.09V60.81H-9.43Z" style="opacity:0.200000002980232;isolation:isolate;fill:url(#c)"/><path d="M38.51,48.22l-5-30.76a1.21,1.21,0,0,0-1.38-1,1.13,1.13,0,0,0-.65.33L.16,48.22,17.51,58A3.63,3.63,0,0,0,21,58Z" style="fill:#ffca28"/><path d="M33.56,17.49a1.21,1.21,0,0,0-1.38-1,1.1,1.1,0,0,0-.65.33l-6.24,6.23-4.88-9.32a1.2,1.2,0,0,0-1.62-.51,1.39,1.39,0,0,0-.51.51l-2.66,5.1L8.91,6.31a1.19,1.19,0,0,0-1.62-.47,1.23,1.23,0,0,0-.63.86L.16,48.22h0l0,0,.18.09,25-25,6.24-6.23a1.18,1.18,0,0,1,1.7,0,1.07,1.07,0,0,1,.33.66l4.92,30.46.06,0ZM.22,48.16,6.66,7A1.17,1.17,0,0,1,8,6a1.23,1.23,0,0,1,.87.62l6.71,12.53,2.66-5.1a1.19,1.19,0,0,1,1.62-.51,1.39,1.39,0,0,1,.51.51l4.79,9.11Z" style="fill:#fff;fill-opacity:0.200000002980232"/><path d="M21,57.66a3.63,3.63,0,0,1-3.5,0L.19,48l0,.27L17.51,58A3.63,3.63,0,0,0,21,58l17.5-9.74,0-.27Z" style="fill:#a52714;opacity:0.200000002980232;isolation:isolate"/><path d="M33.56,17.49a1.21,1.21,0,0,0-1.38-1,1.1,1.1,0,0,0-.65.33l-6.24,6.23-4.88-9.32a1.2,1.2,0,0,0-1.62-.51,1.39,1.39,0,0,0-.51.51l-2.66,5.1L8.91,6.31a1.19,1.19,0,0,0-1.62-.47,1.23,1.23,0,0,0-.63.86L.16,48.22,17.51,58A3.63,3.63,0,0,0,21,58l17.5-9.74Z" style="fill:url(#d)"/></g></svg>