<!-- <svg xmlns="http://www.w3.org/2000/svg" xmlns:xlink="http://www.w3.org/1999/xlink" version="1.1" width="1000" height="1000" viewBox="0 0 1000 1000" xml:space="preserve">
<desc>Created with Fabric.js 3.5.0</desc>
<defs>
</defs>
<rect x="0" y="0" width="100%" height="100%" fill="rgba(255,255,255,0)"/>
<g transform="matrix(7 0 0 7 556.0634 465.1408)" id="296297">
<g style="" vector-effect="non-scaling-stroke">
		<g transform="matrix(1 0 0 1 32.1813 41.345)" id="101218">
<path style="stroke: none; stroke-width: 1; stroke-dasharray: none; stroke-linecap: butt; stroke-dashoffset: 0; stroke-linejoin: miter; stroke-miterlimit: 4; is-custom-font: none; font-file-url: none; fill: rgb(105,139,199); fill-rule: nonzero; opacity: 1;" transform=" translate(-282.1812, -166.345)" d="M 281.82 166.2 C 281.81 166.21 281.81 166.21 281.82 166.2 l 0.73 0.29 L 281.82 166.2 z" stroke-linecap="round"/>
</g>
		<g transform="matrix(1 0 0 1 46.92 0.225)" id="117400">
<path style="stroke: none; stroke-width: 1; stroke-dasharray: none; stroke-linecap: butt; stroke-dashoffset: 0; stroke-linejoin: miter; stroke-miterlimit: 4; is-custom-font: none; font-file-url: none; fill: rgb(239,75,53); fill-rule: nonzero; opacity: 1;" transform=" translate(-296.92, -125.225)" d="M 298.44 159.53 l 3.96 1.58 v -0.15 L 298.44 159.53 z M 295.94 89.34 l -1.94 0.78 l -2.56 1.03 l 2.57 -1.02 h 0 L 295.94 89.34 L 295.94 89.34 z" stroke-linecap="round"/>
</g>
		<g transform="matrix(1 0 0 1 32.18 41.35)" id="585155">
<polygon style="stroke: none; stroke-width: 1; stroke-dasharray: none; stroke-linecap: butt; stroke-dashoffset: 0; stroke-linejoin: miter; stroke-miterlimit: 4; is-custom-font: none; font-file-url: none; fill: rgb(255,255,255); fill-rule: nonzero; opacity: 0.19;" points="0.37,0.15 -0.37,-0.14 -0.36,-0.15 "/>
</g>
		<g transform="matrix(1 0 0 1 -7.985 3.265)" id="156442">
<rect style="stroke: none; stroke-width: 1; stroke-dasharray: none; stroke-linecap: butt; stroke-dashoffset: 0; stroke-linejoin: miter; stroke-miterlimit: 4; is-custom-font: none; font-file-url: none; fill: rgb(71,36,44); fill-opacity: 0; fill-rule: nonzero; opacity: 1;" x="-94.395" y="-94.395" rx="0" ry="0" width="188.79" height="188.79"/>
</g>
		<g transform="matrix(1 0 0 1 -15.465 3.265)" id="898856">
<path style="stroke: none; stroke-width: 1; stroke-dasharray: none; stroke-linecap: butt; stroke-dashoffset: 0; stroke-linejoin: miter; stroke-miterlimit: 4; is-custom-font: none; font-file-url: none; fill: rgb(255,255,255); fill-rule: nonzero; opacity: 1;" transform=" translate(-234.535, -128.265)" d="M 295.05 170.81 c -12.46 15.52 -31.59 25.45 -53.04 25.45 c -37.55 0 -67.99 -30.44 -67.99 -67.99 c 0 -2.47 0.13 -4.9 0.39 -7.3 c 0.45 -4.24 1.29 -8.35 2.49 -12.32 c 8.42 -27.99 34.39 -48.38 65.12 -48.38 c 21.43 0 40.54 9.91 53 25.4 l -1.21 0.48 l -2.86 1.14 l -0.75 0.3 l -8.91 3.57 l -0.54 0.22 c -9.96 -10.83 -24.24 -17.61 -40.12 -17.61 c -24.86 0 -45.84 16.65 -52.38 39.41 c -1.15 3.99 -1.85 8.18 -2.05 12.49 c -0.04 0.86 -0.06 1.73 -0.06 2.6 c 0 30.1 24.4 54.5 54.5 54.5 c 15.89 0 30.19 -6.8 40.15 -17.65 l 0.53 0.21 l 0.73 0.29 L 295.05 170.81 z" stroke-linecap="round"/>
</g>
		<g transform="matrix(1 0 0 1 0.265 3.255)" id="286787">
<path style="stroke: none; stroke-width: 1; stroke-dasharray: none; stroke-linecap: butt; stroke-dashoffset: 0; stroke-linejoin: miter; stroke-miterlimit: 4; is-custom-font: none; font-file-url: none; fill: rgb(229,128,38); fill-rule: nonzero; opacity: 1;" transform=" translate(-250.265, -128.255)" d="M 254.37 116.91 l -28.38 11.32 l 28.33 11.3 l 9.33 3.72 l 7.39 2.95 l 1.74 0.7 l 25.75 10.27 l 3.96 1.43 v 0.78 c -1.84 3.57 -3.99 6.96 -6.41 10.13 l -13.37 -5.33 l -0.07 -0.03 l -0.73 -0.29 c 0 0 0 0 0 0 l -25.55 -10.31 l -0.65 -0.26 l -1.24 -0.5 l -16.62 -6.71 l -28.11 -11.35 l -11.72 -4.73 v -3.7 l 11.51 -4.61 l 28.31 -11.35 l 16.64 -6.67 l 22.75 -9.12 l 4.65 -1.87 l 8.91 -3.57 l 0.33 -0.13 l 0.43 -0.17 l 2.56 -1.03 l 1.94 -0.78 l 0.01 0.01 l 1.31 2.06 l 5.14 8.12 v 0.56 l -18.1 7.22 l -13.33 5.32 l -0.01 0 l -9.62 3.84 L 254.37 116.91 z" stroke-linecap="round"/>
</g>
		<g transform="matrix(1 0 0 1 0.26 3.265)" id="821792">
<path style="stroke: none; stroke-width: 1; stroke-dasharray: none; stroke-linecap: butt; stroke-dashoffset: 0; stroke-linejoin: miter; stroke-miterlimit: 4; is-custom-font: none; font-file-url: none; fill: rgb(229,128,38); fill-rule: nonzero; opacity: 1;" transform=" translate(-250.26, -128.265)" d="M 254.37 116.91 l -28.38 11.32 l 28.33 11.3 l 9.33 3.72 l 7.39 2.95 l 1.74 0.7 l 25.75 10.27 l 3.96 1.58 v 0.63 c -1.84 3.57 -3.99 6.96 -6.41 10.13 l -13.37 -5.33 l -0.07 -0.03 l -0.73 -0.29 l -25.55 -10.31 l -0.65 -0.26 l -1.24 -0.5 l -16.62 -6.71 l -28.11 -11.35 l -11.72 -4.73 v -3.7 l 11.51 -4.61 l 28.31 -11.35 l 16.64 -6.67 l 22.75 -9.12 l 4.65 -1.87 l 8.91 -3.57 l 0.33 -0.13 l 0.43 -0.17 l 2.57 -1.02 h 0 l 1.93 -0.77 l 1.31 2.06 l 5.14 8.12 v 0.56 l -18.1 7.22 l -13.33 5.32 l -0.01 0 l -9.62 3.84 L 254.37 116.91 z" stroke-linecap="round"/>
</g>
		<g transform="matrix(1 0 0 1 33.24 3.23)" id="792148">
<path style="stroke: none; stroke-width: 1; stroke-dasharray: none; stroke-linecap: butt; stroke-dashoffset: 0; stroke-linejoin: miter; stroke-miterlimit: 4; is-custom-font: none; font-file-url: none; fill: rgb(229,128,38); fill-rule: nonzero; opacity: 1;" transform=" translate(-283.24, -128.23)" d="M 310 128.27 c 0 0.84 -0.01 1.67 -0.05 2.5 l -10.45 4.14 l -26.3 10.43 l -16.72 -6.67 l 26.3 -10.43 l -26.25 -10.47 l 15.07 -6.01 l 0.01 0 l 1.6 -0.64 l 16.43 6.59 l 9.79 3.93 l 10.53 4.22 C 309.99 126.66 310 127.46 310 128.27 z" stroke-linecap="round"/>
</g>
</g>
</g>
</svg> -->
<!-- <svg id="Layer_1" data-name="Layer 1" xmlns="http://www.w3.org/2000/svg" viewBox="0 0 101.17 103.77">
  <path d="m101.17,103.77H0V0h101.17v103.77ZM31.76,36.52l-.16.02c-.16,0-.33.01-.49.02-.1-.07-.19-.07-.29,0-.12,0-.23,0-.35,0-.08-.06-.16-.05-.24-.02-.1-.02-.21-.07-.27.07,0,.14.11.21.19.3,1.61,1.56,3.22,3.11,4.82,4.67.29.29.61.55.6,1.05-.08,4.65.07,9.31-.08,13.96-.02.45.32.73.58,1.03,2.45,2.83,4.92,5.65,7.31,8.53.12.14.11-.01.16-.03,0,0,.03-.01.03-.02,0-.02-.01-.04-.02-.06,0-.07,0-.14.01-.21,0,0,.02-.02.02-.02,0-.02-.01-.04-.02-.05,0-.11-.01-.21-.01-.32,0-4.91,0-9.83,0-14.74,0-.66-.04-1.31.03-1.97.08-.06-.03-.3.2-.22.23.21.46.42.68.64,2.29,2.29,4.58,4.59,6.86,6.89.19.19.31.16.47,0,.2-.2.4-.4.6-.6.76-.79,1.52-1.58,2.29-2.36.25-.26.64-.49.62-.95,0-.03,0-.07,0-.1,0-3.39,0-6.77,0-10.16,0-.18-.04-.37-.05-.53-.1-.03-.13.02-.16.05-1,1.1-2.12,2.08-3.15,3.14-.14.15-.29.27-.5.31-.49-.37-.85-.86-1.27-1.3-1.47-1.56-3.1-2.96-4.55-4.54-.7-.77-1.45-1.49-2.18-2.23-.12-.13-.27-.2-.44-.2-.73,0-1.46-.01-2.19-.02-.05,0-.09-.03-.14-.03-2.97,0-5.94,0-8.91,0Zm36.21,10.98s.03-.02.05-.02c-.02-.02-.03-.03-.05-.05,0-1.47.04-2.95-.02-4.42-.03-.67.24-1.12.68-1.49.72-.6,1.32-1.33,2-1.97.79-.75,1.54-1.54,2.31-2.31.18-.18.4-.31.53-.64h-13.53c0,.26,0,.54,0,.82,0,5.56.01,11.11.02,16.67,0,.26-.07.48-.27.68-.65.64-1.28,1.29-1.93,1.93-1.97,1.95-3.95,3.9-5.93,5.85-.21.2-.33.41-.32.72.02.59,0,1.17,0,1.76-.12.07-.12.14,0,.22v8.79l.11.02c.44-.41.84-.87,1.25-1.3,2.68-2.81,5.37-5.61,8.05-8.42.7-.73,1.41-1.46,2.1-2.21.91-1,1.88-1.96,2.82-2.93.6-.62,1.2-1.25,1.81-1.87.22-.22.32-.46.31-.77-.01-.65-.01-1.29-.01-1.94,0-2.37,0-4.74,0-7.11Z" style="fill: ;"/>
  <path d="m55.3,52.11c.02.46-.37.69-.62.95-.77.78-1.53,1.57-2.29,2.36-.2.2-.4.4-.6.6-.16.16-.28.18-.47,0-2.28-2.3-4.57-4.6-6.86-6.89-.22-.22-.45-.42-.68-.64-.05-.08-.07-.19-.21-.19-.02.14-.03.28,0,.41-.07.66-.03,1.31-.03,1.97,0,4.91,0,9.83,0,14.74,0,.11,0,.21.01.32,0,.03,0,.05,0,.08,0,.07,0,.14-.01.21,0,.03,0,.05,0,.08-.05.01-.04.17-.16.03-2.39-2.88-4.85-5.7-7.31-8.53-.26-.3-.6-.58-.58-1.03.16-4.65,0-9.31.08-13.96,0-.5-.31-.76-.6-1.05-1.6-1.56-3.21-3.12-4.82-4.67-.08-.08-.19-.15-.19-.3.05-.14.17-.09.27-.07.08.06.16.05.24.02.12,0,.23,0,.35,0,.1.14.19.14.29,0,.16,0,.33-.01.49-.02.05.01.1.02.15.04,2.95,0,5.9,0,8.85,0,.07,0,.14-.03.21-.04.73,0,1.46.01,2.19.02.18,0,.32.07.44.2.73.74,1.48,1.47,2.18,2.23,1.45,1.58,3.08,2.98,4.55,4.54.42.44.77.94,1.27,1.3.21-.04.36-.16.5-.31,1.03-1.07,2.15-2.04,3.15-3.14.03-.03.06-.08.16-.05.02.16.05.35.05.53,0,3.39,0,6.77,0,10.16-.03.02-.06.03-.09.05.03.02.06.03.09.05Z" style="fill: #ba262d;"/>
  <path d="m51.52,65.03c0-.59.03-1.17,0-1.76-.01-.31.11-.52.32-.72,1.98-1.95,3.96-3.9,5.93-5.85.65-.64,1.28-1.29,1.93-1.93.2-.19.27-.41.27-.68,0-5.56-.01-11.11-.02-16.67,0-.28,0-.57,0-.82h13.53c-.13.32-.35.46-.53.64-.77.77-1.52,1.56-2.31,2.31-.68.64-1.28,1.36-2,1.97-.44.37-.72.82-.68,1.49.07,1.47.02,2.94.02,4.42,0,.02,0,.05,0,.07,0,2.37,0,4.74,0,7.11,0,.65,0,1.29.01,1.94,0,.31-.1.55-.31.77-.61.62-1.21,1.25-1.81,1.87-.94.98-1.91,1.93-2.82,2.93-.68.75-1.39,1.48-2.1,2.21-2.68,2.81-5.37,5.61-8.05,8.42-.42.44-.81.89-1.25,1.3l-.11-.02v-8.79c.1-.07.1-.14,0-.22Z" style="fill: #444344;"/>
  <path d="m40.81,36.53c-.07.01-.14.04-.21.04-2.95,0-5.9,0-8.85,0,0-.02,0-.04,0-.05,2.97,0,5.94,0,8.91,0,.05,0,.09.02.14.03Z" style="fill: #e74d5e;"/>
  <path d="m43.58,48.71c-.04-.13-.03-.27,0-.41.14,0,.15.11.21.19-.23-.08-.12.16-.2.22Z" style="fill: #ecd8da;"/>
  <path d="m31.11,36.55c-.1.14-.19.14-.29,0,.1-.07.19-.07.29,0Z" style="fill: #db8589;"/>
  <path d="m51.52,65.03c.1.07.1.14,0,.22-.12-.07-.12-.14,0-.22Z" style="fill: #7e8081;"/>
  <path d="m30.48,36.55c-.08.03-.16.05-.24-.02.08-.03.16-.04.24.02Z" style="fill: #db8589;"/>
  <path d="m31.76,36.52s0,.04,0,.05c-.05-.01-.1-.02-.15-.04.05,0,.11-.01.16-.02Z" style="fill: #db8589;"/>
  <path d="m55.3,52.11s-.06-.03-.09-.05c.03-.02.06-.03.09-.05,0,.03,0,.07,0,.1Z" style="fill: #db8589;"/>
  <path d="m67.97,47.49s0-.05,0-.07c.02.02.03.03.05.05-.02,0-.03.02-.05.02Z" style="fill: #7e8081;"/>
  <path d="m43.56,65.82s0-.05,0-.08c0,.02.02.04.02.05,0,0-.01.01-.02.02Z" style="fill: #ecd8da;"/>
  <path d="m43.55,66.11s0-.05,0-.08c0,.02.02.04.02.06,0,0-.02.01-.03.02Z" style="fill: #ecd8da;"/>
</svg> -->

<svg id="Layer_2" data-name="Layer 2" xmlns="http://www.w3.org/2000/svg" viewBox="0 0 286.35 247.26">
  <path d="m166.8,102.71c-.37,3.68-3.36,5.61-5.63,7.89-1.38,1.39-2.82,2.75-4.2,4.18-4.49,4.64-9.08,9.19-13.63,13.77-.45.45-.93.85-1.15.45-11.43-11.16-22.85-22.33-34.28-33.48-5.67-5.53-11.01-11.41-16.99-16.64-.36-.5-.49-1.27-1.37-1.26-.15.94-.18,1.83.06,2.71-.44,4.32-.17,8.65-.17,12.98-.03,32.36,0,64.72,0,97.08,0,.71.05,1.41.08,2.12,0,.16,0,.33-.01.49-.02.47-.05.93-.07,1.4-.02.16-.04.33-.06.49-.34.08-.28,1.11-1.06.17-15.74-18.96-31.96-37.53-48.12-56.13-1.72-1.98-3.94-3.82-3.84-6.78,1.04-30.63.06-61.27.55-91.9.04-2.45-.84-4.1-2.49-5.69C23.3,23.89,12.21,13.15,1.1,2.42.59,1.93.03,1.47,0,.63.35-.29,1.09.04,1.77.14c.5.43,1.03.33,1.57.11.76,0,1.52.01,2.27.02.12.18.22.46.38.5.38.1.53-.2.57-.54,1.4-.02,2.81-.05,4.21-.07.59.42,1.26.17,1.89.2,19.2.02,38.41.05,57.61.06.37,0,.75-.17,1.12-.27,4.81.04,9.61.08,14.42.11,1.18,0,2.11.47,2.92,1.31,6.4,6.52,12.79,13.05,19.22,19.54,8.15,8.21,16.43,16.3,24.49,24.6,2.95,3.04,5.78,6.18,8.78,9.05,1.41-.26,2.37-.97,3.26-1.89,6.86-7.06,14.28-13.57,20.92-20.86.19-.21.46-.37.99-.79.16,1.5.4,2.71.4,3.92.03,22.3.03,44.61.03,66.91-.2.1-.39.21-.59.31l.57.34Z" style="fill: #ba262d;"/>
  <path d="m197.44.6h88.9c-.56,2.64-2.6,3.46-3.97,4.85-4,4.03-7.9,8.16-12.04,12.04-6.41,6.02-12.26,12.59-18.6,18.67-1.19,1.15-1.54,2.35-1.54,3.89.02,9.38-.03,18.77-.04,28.15,0,19.09,0,38.18.02,57.26,0,2.13.05,4.26.07,6.39.02,2.04-.65,3.73-2.12,5.23-5.31,5.4-10.56,10.85-15.79,16.32-9.48,9.9-18.93,19.83-28.39,29.75-9.01,9.44-18,18.9-27.02,28.32-8.91,9.31-17.89,18.55-26.78,27.89-2.53,2.66-4.85,5.5-7.61,7.9-.84-.61-.56-1.3-.56-1.88-.03-23.66-.04-47.32-.08-70.98,0-1.11.13-1.89,1.27-2.42,1.52-.71,2.52-2.12,3.65-3.3,5.58-5.89,11.57-11.36,17.33-17.07,10.52-10.44,21.02-20.9,31.57-31.32,1.28-1.27,1.82-2.69,1.81-4.43-.06-29.34-.1-58.67-.15-88.01-.01-8.6-.02-17.19-.03-25.79,0-.62-.13-1.27.09-1.47Z" style="fill: #444445;"/>
</svg>