<svg xmlns="http://www.w3.org/2000/svg" xmlns:xlink="http://www.w3.org/1999/xlink" version="1.1" width="1000" height="1000" viewBox="0 0 1000 1000" xml:space="preserve">
<desc>Created with Fabric.js 3.5.0</desc>
<defs>
</defs>
<rect x="0" y="0" width="100%" height="100%" fill="rgba(255,255,255,0)"/>
<g transform="matrix(7 0 0 7 556.0634 465.1408)" id="296297">
<g style="" vector-effect="non-scaling-stroke">
		<g transform="matrix(1 0 0 1 32.1813 41.345)" id="101218">
<path style="stroke: none; stroke-width: 1; stroke-dasharray: none; stroke-linecap: butt; stroke-dashoffset: 0; stroke-linejoin: miter; stroke-miterlimit: 4; is-custom-font: none; font-file-url: none; fill: rgb(105,139,199); fill-rule: nonzero; opacity: 1;" transform=" translate(-282.1812, -166.345)" d="M 281.82 166.2 C 281.81 166.21 281.81 166.21 281.82 166.2 l 0.73 0.29 L 281.82 166.2 z" stroke-linecap="round"/>
</g>
		<g transform="matrix(1 0 0 1 46.92 0.225)" id="117400">
<path style="stroke: none; stroke-width: 1; stroke-dasharray: none; stroke-linecap: butt; stroke-dashoffset: 0; stroke-linejoin: miter; stroke-miterlimit: 4; is-custom-font: none; font-file-url: none; fill: rgb(239,75,53); fill-rule: nonzero; opacity: 1;" transform=" translate(-296.92, -125.225)" d="M 298.44 159.53 l 3.96 1.58 v -0.15 L 298.44 159.53 z M 295.94 89.34 l -1.94 0.78 l -2.56 1.03 l 2.57 -1.02 h 0 L 295.94 89.34 L 295.94 89.34 z" stroke-linecap="round"/>
</g>
		<g transform="matrix(1 0 0 1 32.18 41.35)" id="585155">
<polygon style="stroke: none; stroke-width: 1; stroke-dasharray: none; stroke-linecap: butt; stroke-dashoffset: 0; stroke-linejoin: miter; stroke-miterlimit: 4; is-custom-font: none; font-file-url: none; fill: rgb(255,255,255); fill-rule: nonzero; opacity: 0.19;" points="0.37,0.15 -0.37,-0.14 -0.36,-0.15 "/>
</g>
		<g transform="matrix(1 0 0 1 -7.985 3.265)" id="156442">
<rect style="stroke: none; stroke-width: 1; stroke-dasharray: none; stroke-linecap: butt; stroke-dashoffset: 0; stroke-linejoin: miter; stroke-miterlimit: 4; is-custom-font: none; font-file-url: none; fill: rgb(71,36,44); fill-opacity: 0; fill-rule: nonzero; opacity: 1;" x="-94.395" y="-94.395" rx="0" ry="0" width="188.79" height="188.79"/>
</g>
		<g transform="matrix(1 0 0 1 -15.465 3.265)" id="898856">
<path style="stroke: none; stroke-width: 1; stroke-dasharray: none; stroke-linecap: butt; stroke-dashoffset: 0; stroke-linejoin: miter; stroke-miterlimit: 4; is-custom-font: none; font-file-url: none; fill: rgb(255,255,255); fill-rule: nonzero; opacity: 1;" transform=" translate(-234.535, -128.265)" d="M 295.05 170.81 c -12.46 15.52 -31.59 25.45 -53.04 25.45 c -37.55 0 -67.99 -30.44 -67.99 -67.99 c 0 -2.47 0.13 -4.9 0.39 -7.3 c 0.45 -4.24 1.29 -8.35 2.49 -12.32 c 8.42 -27.99 34.39 -48.38 65.12 -48.38 c 21.43 0 40.54 9.91 53 25.4 l -1.21 0.48 l -2.86 1.14 l -0.75 0.3 l -8.91 3.57 l -0.54 0.22 c -9.96 -10.83 -24.24 -17.61 -40.12 -17.61 c -24.86 0 -45.84 16.65 -52.38 39.41 c -1.15 3.99 -1.85 8.18 -2.05 12.49 c -0.04 0.86 -0.06 1.73 -0.06 2.6 c 0 30.1 24.4 54.5 54.5 54.5 c 15.89 0 30.19 -6.8 40.15 -17.65 l 0.53 0.21 l 0.73 0.29 L 295.05 170.81 z" stroke-linecap="round"/>
</g>
		<g transform="matrix(1 0 0 1 0.265 3.255)" id="286787">
<path style="stroke: none; stroke-width: 1; stroke-dasharray: none; stroke-linecap: butt; stroke-dashoffset: 0; stroke-linejoin: miter; stroke-miterlimit: 4; is-custom-font: none; font-file-url: none; fill: rgb(229,128,38); fill-rule: nonzero; opacity: 1;" transform=" translate(-250.265, -128.255)" d="M 254.37 116.91 l -28.38 11.32 l 28.33 11.3 l 9.33 3.72 l 7.39 2.95 l 1.74 0.7 l 25.75 10.27 l 3.96 1.43 v 0.78 c -1.84 3.57 -3.99 6.96 -6.41 10.13 l -13.37 -5.33 l -0.07 -0.03 l -0.73 -0.29 c 0 0 0 0 0 0 l -25.55 -10.31 l -0.65 -0.26 l -1.24 -0.5 l -16.62 -6.71 l -28.11 -11.35 l -11.72 -4.73 v -3.7 l 11.51 -4.61 l 28.31 -11.35 l 16.64 -6.67 l 22.75 -9.12 l 4.65 -1.87 l 8.91 -3.57 l 0.33 -0.13 l 0.43 -0.17 l 2.56 -1.03 l 1.94 -0.78 l 0.01 0.01 l 1.31 2.06 l 5.14 8.12 v 0.56 l -18.1 7.22 l -13.33 5.32 l -0.01 0 l -9.62 3.84 L 254.37 116.91 z" stroke-linecap="round"/>
</g>
		<g transform="matrix(1 0 0 1 0.26 3.265)" id="821792">
<path style="stroke: none; stroke-width: 1; stroke-dasharray: none; stroke-linecap: butt; stroke-dashoffset: 0; stroke-linejoin: miter; stroke-miterlimit: 4; is-custom-font: none; font-file-url: none; fill: rgb(229,128,38); fill-rule: nonzero; opacity: 1;" transform=" translate(-250.26, -128.265)" d="M 254.37 116.91 l -28.38 11.32 l 28.33 11.3 l 9.33 3.72 l 7.39 2.95 l 1.74 0.7 l 25.75 10.27 l 3.96 1.58 v 0.63 c -1.84 3.57 -3.99 6.96 -6.41 10.13 l -13.37 -5.33 l -0.07 -0.03 l -0.73 -0.29 l -25.55 -10.31 l -0.65 -0.26 l -1.24 -0.5 l -16.62 -6.71 l -28.11 -11.35 l -11.72 -4.73 v -3.7 l 11.51 -4.61 l 28.31 -11.35 l 16.64 -6.67 l 22.75 -9.12 l 4.65 -1.87 l 8.91 -3.57 l 0.33 -0.13 l 0.43 -0.17 l 2.57 -1.02 h 0 l 1.93 -0.77 l 1.31 2.06 l 5.14 8.12 v 0.56 l -18.1 7.22 l -13.33 5.32 l -0.01 0 l -9.62 3.84 L 254.37 116.91 z" stroke-linecap="round"/>
</g>
		<g transform="matrix(1 0 0 1 33.24 3.23)" id="792148">
<path style="stroke: none; stroke-width: 1; stroke-dasharray: none; stroke-linecap: butt; stroke-dashoffset: 0; stroke-linejoin: miter; stroke-miterlimit: 4; is-custom-font: none; font-file-url: none; fill: rgb(229,128,38); fill-rule: nonzero; opacity: 1;" transform=" translate(-283.24, -128.23)" d="M 310 128.27 c 0 0.84 -0.01 1.67 -0.05 2.5 l -10.45 4.14 l -26.3 10.43 l -16.72 -6.67 l 26.3 -10.43 l -26.25 -10.47 l 15.07 -6.01 l 0.01 0 l 1.6 -0.64 l 16.43 6.59 l 9.79 3.93 l 10.53 4.22 C 309.99 126.66 310 127.46 310 128.27 z" stroke-linecap="round"/>
</g>
</g>
</g>
</svg>